<svg width="18" height="10" fill="none" xmlns="http://www.w3.org/2000/svg"><g clip-path="url(#a)"><g clip-path="url(#b)"><path d="m17.794 5.498-3.675 3.657a.703.703 0 0 1-.992-.997l2.467-2.455H.704a.703.703 0 1 1 0-1.406h14.89l-2.467-2.455a.703.703 0 1 1 .992-.997l3.674 3.657a.704.704 0 0 1 0 .996Z" fill="#000"/></g></g><defs><clipPath id="a"><path fill="#fff" transform="rotate(90 9 9)" d="M0 0h10v18H0z"/></clipPath><clipPath id="b"><path fill="#fff" transform="matrix(1 0 0 -1 0 14)" d="M0 0h18v18H0z"/></clipPath></defs></svg>