<svg width="43" height="43" fill="none" xmlns="http://www.w3.org/2000/svg"><g clip-path="url(#a)" fill="#C4C4C4"><path d="M17.916 30.47h1.433v1.433h-1.433V30.47ZM19.35 31.903h1.432v1.433H19.35v-1.433ZM32.25 30.47h1.433v1.433h-1.434V30.47ZM30.816 31.903h1.433v1.433h-1.433v-1.433ZM8.6 31.903h1.432v1.433H8.6v-1.433ZM10.033 30.47h1.433v1.433h-1.433V30.47ZM14.333 21.87h1.433v1.433h-1.433v-1.434ZM15.766 20.436H17.2v1.433h-1.433v-1.433ZM27.95 21.153h1.433v1.433H27.95v-1.433ZM37.266 21.153H38.7v1.433h-1.433v-1.433Z"/><path d="M40.133 32.813V17.569a10.05 10.05 0 0 0-8.616-9.924c.005-.089.015-.175.015-.264V6.103a.717.717 0 0 0-.716-.717h-1.278a5.173 5.173 0 0 0-4.632 2.884 4.986 4.986 0 0 0-4.672-2.135 7.878 7.878 0 0 0-6.617-3.615v1.433a6.437 6.437 0 0 1 5.146 2.58 4.992 4.992 0 0 0-2.701 6.267L3.33 17.616a.708.708 0 0 0-.452.67h-.011v14.527C.947 33.564 0 34.44 0 35.486c0 3.968 14.064 5.017 21.5 5.017S43 39.455 43 35.486c0-1.046-.947-1.922-2.867-2.673ZM4.3 25.073c.481-.001.943.189 1.284.528a3.253 3.253 0 0 0 4.597 0 1.82 1.82 0 0 1 2.57 0 3.253 3.253 0 0 0 4.597 0 1.82 1.82 0 0 1 2.57 0 3.253 3.253 0 0 0 4.596 0 1.82 1.82 0 0 1 2.57 0 3.25 3.25 0 0 0 4.597 0 1.82 1.82 0 0 1 2.57 0 3.225 3.225 0 0 0 4.45.121v1.9c-.36.153-.689.373-.966.649a1.679 1.679 0 0 1-2.371 0l-.2-.2a3.116 3.116 0 0 0-4.398 0l-.198.198a1.68 1.68 0 0 1-2.37 0l-.2-.2a3.116 3.116 0 0 0-4.399 0l-.198.199a1.68 1.68 0 0 1-2.37 0l-.2-.2a3.115 3.115 0 0 0-4.399 0l-.197.199a1.679 1.679 0 0 1-2.371 0l-.2-.2a3.116 3.116 0 0 0-4.398 0l-.198.198a1.68 1.68 0 0 1-2.37 0l-.2-.2a3.094 3.094 0 0 0-2.198-.9v-2.092Zm34.4-1.099c-.32.156-.613.363-.866.614a1.82 1.82 0 0 1-2.57 0 3.25 3.25 0 0 0-4.595-.002l-.001.002a1.82 1.82 0 0 1-2.57 0 3.253 3.253 0 0 0-4.597 0 1.82 1.82 0 0 1-2.57 0 3.253 3.253 0 0 0-4.597 0 1.82 1.82 0 0 1-2.57 0 3.253 3.253 0 0 0-4.596 0 1.82 1.82 0 0 1-2.57 0 3.248 3.248 0 0 0-2.298-.95v-4.635h3.287l2.032 2.032a2.616 2.616 0 0 0 3.696 0l2.032-2.032h2.99l2.032 2.032a2.616 2.616 0 0 0 3.695 0l2.033-2.032h2.99l2.032 2.032a2.616 2.616 0 0 0 3.696 0l2.032-2.032H38.7v4.971ZM4.3 28.6a1.67 1.67 0 0 1 1.184.485l.199.2a3.116 3.116 0 0 0 4.4 0l.197-.198a1.68 1.68 0 0 1 2.37 0l.2.2a3.115 3.115 0 0 0 4.399 0l.197-.199a1.68 1.68 0 0 1 2.371 0l.2.2a3.115 3.115 0 0 0 4.398 0l.198-.198a1.68 1.68 0 0 1 2.37 0l.2.2a3.116 3.116 0 0 0 4.4 0l.197-.2a1.68 1.68 0 0 1 2.37 0l.2.2a3.104 3.104 0 0 0 4.35.034v5.447H4.3v-6.171Zm27.102-17.784 1.021 1.021-1.021 1.021a2.857 2.857 0 0 1-4.038 0l-1.022-1.02 1.022-1.022a2.857 2.857 0 0 1 4.038 0ZM29.538 6.82h.562v.561c0 .414-.07.825-.205 1.215a4.264 4.264 0 0 0-3.544 1.206l-.528.527a3.732 3.732 0 0 1 3.715-3.51Zm-10.034.963c.37.824.562 1.716.563 2.62v.716H21.5v-.716a7.832 7.832 0 0 0-.541-2.849 3.576 3.576 0 1 1-1.454.229Zm-2.766 6.292a5.005 5.005 0 0 0 8.704-1.11l.907.906a4.293 4.293 0 0 0 6.064 0l1.53-1.528a.717.717 0 0 0 0-1.014l-1.528-1.527a4.215 4.215 0 0 0-1.016-.73A8.618 8.618 0 0 1 38.7 17.57h-2.15a.717.717 0 0 0-.507.21l-2.242 2.242c-.462.46-1.207.46-1.668 0L29.89 17.78a.717.717 0 0 0-.507-.21H25.8a.717.717 0 0 0-.507.21l-2.242 2.242c-.461.46-1.207.46-1.668 0L19.14 17.78a.717.717 0 0 0-.507-.21H15.05a.717.717 0 0 0-.507.21l-2.242 2.242c-.462.46-1.207.46-1.668 0L8.39 17.78a.717.717 0 0 0-.507-.21h-.38l9.235-3.495ZM21.5 39.07c-12.984 0-20.067-2.365-20.067-3.584 0-.185.335-.615 1.434-1.12v1.12c0 .396.32.717.716.717h35.834c.395 0 .716-.321.716-.717v-1.12c1.1.503 1.434.932 1.434 1.12 0 1.219-7.083 3.584-20.067 3.584Z"/></g><defs><clipPath id="a"><path fill="#fff" d="M0 0h43v43H0z"/></clipPath></defs></svg>