<svg width="48" height="48" fill="none" xmlns="http://www.w3.org/2000/svg"><circle cx="24" cy="24" r="18" fill="#337D5A"/><circle cx="24" cy="24" r="24" fill="#93B474" fill-opacity=".15"/><path d="M28.813 25.719v-8.25c0-.569-.463-1.032-1.032-1.032h-13.75c-.568 0-1.031.463-1.031 1.032v8.25c0 .568.463 1.031 1.031 1.031h13.75c.569 0 1.032-.463 1.032-1.031Zm-15.125 0v-8.25c0-.19.154-.344.343-.344h13.75c.19 0 .344.154.344.344v8.25c0 .19-.154.343-.344.343h-13.75a.344.344 0 0 1-.344-.343Z" fill="#fff"/><path d="M33.969 21.25h-4.125a.344.344 0 1 0 0 .688h4.125c.19 0 .343.154.343.343V24h-4.468a.344.344 0 1 0 0 .688h4.468v5.843c0 .19-.154.344-.343.344h-13.75a.344.344 0 0 1-.344-.344v-2.75a.344.344 0 0 0-.688 0v2.75c0 .569.463 1.032 1.032 1.032h13.75c.568 0 1.031-.463 1.031-1.032v-8.25c0-.568-.463-1.031-1.031-1.031ZM20.219 23.656H18.5a.344.344 0 0 0 0 .688h1.719a.344.344 0 0 0 0-.688ZM17.125 23.656h-1.719a.344.344 0 0 0 0 .688h1.719a.344.344 0 0 0 0-.688Z" fill="#fff"/><path d="M26.406 23.656h-1.718a.344.344 0 0 0 0 .688h1.718a.344.344 0 0 0 0-.688ZM23.313 23.656h-1.72a.344.344 0 0 0 0 .688h1.72a.344.344 0 0 0 0-.688ZM16.781 18.156H15.75c-.569 0-1.031.463-1.031 1.032v.343c0 .569.462 1.032 1.031 1.032h1.031c.569 0 1.032-.463 1.032-1.032v-.343c0-.57-.463-1.032-1.032-1.032Zm.344 1.375c0 .19-.154.344-.344.344H15.75a.344.344 0 0 1-.344-.344v-.343c0-.19.154-.344.344-.344h1.031c.19 0 .344.154.344.343v.344ZM25.719 18.156c-.41 0-.78.181-1.032.467a1.372 1.372 0 0 0-1.03-.467c-.759 0-1.376.617-1.376 1.375s.617 1.375 1.375 1.375c.41 0 .78-.18 1.032-.467.252.286.62.467 1.03.467.759 0 1.376-.617 1.376-1.375s-.617-1.375-1.375-1.375Zm-2.063 2.063a.688.688 0 1 1 .002-1.377.688.688 0 0 1-.002 1.377Zm2.063 0a.688.688 0 0 1 0-1.375.688.688 0 0 1 0 1.375ZM29.844 23.313h3.781a.344.344 0 0 0 0-.688h-3.781a.344.344 0 1 0 0 .688ZM32.594 27.438h-6.532a.344.344 0 0 0 0 .687h6.532a.344.344 0 0 0 0-.688ZM32.594 28.813h-4.125a.344.344 0 1 0 0 .687h4.125a.344.344 0 0 0 0-.688Z" fill="#fff"/></svg>