<svg width="15" height="13" fill="none" xmlns="http://www.w3.org/2000/svg"><path d="M1.44 4.24c.19.134.761.531 1.716 1.193.954.66 1.685 1.17 2.193 1.527l.355.255c.182.132.332.238.452.319.12.08.265.171.436.272.17.1.33.175.481.225.15.05.29.076.419.076h.016c.129 0 .268-.025.419-.076.15-.05.311-.125.481-.225.17-.101.316-.192.436-.272.12-.081.27-.187.452-.319l.355-.255 3.918-2.72a3.976 3.976 0 0 0 1.02-1.03A2.21 2.21 0 0 0 15 1.946c0-.368-.133-.683-.398-.946a1.294 1.294 0 0 0-.941-.393H1.339c-.43 0-.76.145-.992.435C.116 1.332 0 1.695 0 2.13c0 .352.154.733.46 1.143.307.41.634.732.98.967Z" fill="#337D5A"/><path d="M14.163 5.135a174.087 174.087 0 0 0-4.169 2.888c-.318.235-.576.417-.774.549a4.778 4.778 0 0 1-.79.401c-.33.137-.637.205-.921.205h-.017a2.41 2.41 0 0 1-.921-.205 4.78 4.78 0 0 1-.791-.401 19.815 19.815 0 0 1-.774-.549c-.754-.552-2.14-1.515-4.16-2.888A4.434 4.434 0 0 1 0 4.407v6.646c0 .369.131.684.393.946.263.263.578.394.946.394h12.322c.368 0 .683-.131.946-.394a1.29 1.29 0 0 0 .393-.946V4.407c-.24.268-.519.51-.837.728Z" fill="#337D5A"/></svg>