<svg width="13" height="13" fill="none" xmlns="http://www.w3.org/2000/svg"><g clip-path="url(#a)" fill="#323232"><path d="M9.487 0H3.513A3.517 3.517 0 0 0 0 3.513v5.974A3.517 3.517 0 0 0 3.513 13h5.974A3.517 3.517 0 0 0 13 9.487V3.513A3.517 3.517 0 0 0 9.487 0Zm2.463 9.487a2.465 2.465 0 0 1-2.463 2.463H3.513A2.465 2.465 0 0 1 1.05 9.487V3.513A2.465 2.465 0 0 1 3.513 1.05h5.974a2.465 2.465 0 0 1 2.463 2.463v5.974Z"/><path d="M9.41 6.047a2.895 2.895 0 0 0-.823-1.634 2.913 2.913 0 0 0-4.403.325 2.896 2.896 0 0 0-.542 2.164c.114.77.522 1.45 1.147 1.913a2.893 2.893 0 0 0 2.164.543A2.896 2.896 0 0 0 8.867 8.21a2.896 2.896 0 0 0 .542-2.164ZM6.8 8.319a1.852 1.852 0 0 1-1.385-.347c-.4-.297-.66-.732-.734-1.224-.073-.493.05-.985.347-1.385a1.853 1.853 0 0 1 1.771-.733c.819.12 1.45.752 1.571 1.57A1.867 1.867 0 0 1 6.8 8.32ZM10.158 2.842a.529.529 0 0 0-.743 0 .528.528 0 0 0 0 .743.529.529 0 0 0 .743 0 .529.529 0 0 0 0-.743Z"/></g><defs><clipPath id="a"><path fill="#fff" d="M0 0h13v13H0z"/></clipPath></defs></svg>