<svg width="30" height="30" fill="none" xmlns="http://www.w3.org/2000/svg"><g clip-path="url(#a)"><path d="M41.81 8.967C33.5.657 24.022-1.996 15.117 1.506l-1.148.452.672 1.037c.31.478.62.92.93 1.345-2.32 1.172-4.55 2.819-6.648 4.917-4.437 4.437-7.569 11.995-8.595 20.74-.71 6.05-.243 11.466 1.178 14.904.266.93.682 1.7 1.262 2.266.036.035.08.049.118.077.049.056.096.112.146.165.012.014.021.029.033.042.009.01.01.022.021.032l.017.016c.003.003.004.006.008.008.002.004.007.005.01.007l.016.015c.014.013.026.03.039.043.084.087.193.162.284.244.018.015.034.032.052.046 2.212 1.986 6.316 3.103 11.676 3.137l.236.001c8.465 0 19.745-2.818 26.085-9.158 2.158-2.158 3.841-4.466 5.022-6.875.445.294.909.588 1.403.881l1.036.614.424-1.128c3.308-8.805.615-18.17-7.584-26.367Zm-1.73 31.447c-5.988 5.99-16.842 8.605-24.88 8.566a30.666 30.666 0 0 1-3.836-.26c5.532-1.097 12.399-4.662 15.567-9.835a1.008 1.008 0 1 0-1.72-1.055c-3.042 4.964-10.377 8.55-15.71 9.148-2.316.256-4.1-.06-4.931-.872-.014-.014-.027-.033-.04-.047-.578-1.232 2.783-8.57 7.607-12.148a1.009 1.009 0 0 0-1.203-1.62c-3.298 2.448-6.376 6.96-7.732 10.404-.025-.594-.006-1.24.073-1.94.598-5.336 4.183-12.672 9.147-15.712a1.008 1.008 0 1 0-1.055-1.72c-4.53 2.774-7.828 8.386-9.314 13.454a43.064 43.064 0 0 1 .28-6.544c.959-8.18 3.956-15.488 8.017-19.548 2.056-2.056 4.237-3.641 6.49-4.722 3.19 3.725 6.215 4.93 8.153 5.292-.219.307-.405.608-.6.912-.101.16-.22.321-.314.48-.126.21-.227.415-.342.624-.137.249-.287.5-.409.745-.056.114-.098.225-.15.337-.158.335-.315.67-.445.998-.015.038-.026.074-.04.113-2.2 5.639-.562 10.135-.102 11.196l.159.367.366.158c.985.426 4.933 1.877 10.01.316h.004c.367-.114.741-.25 1.12-.396.057-.023.115-.038.173-.061.287-.114.58-.256.873-.39.155-.071.306-.129.463-.207.229-.114.464-.254.697-.381.224-.123.445-.232.671-.368.164-.099.331-.22.496-.327.298-.19.595-.373.896-.588.392 2.11 1.793 5.504 6.346 8.997-1.088 2.314-2.693 4.543-4.785 6.634Zm7.82-6.957c-.3-.194-.564-.387-.841-.58l-.351-.253c-6.825-4.93-6.33-9.42-6.296-9.665l.456-2.716-.017.014-2.09 1.776c-6.662 5.659-12.8 4.048-14.467 3.446a10.82 10.82 0 0 1-.391-1.383 13.197 13.197 0 0 1-.286-3.043c.057-2.713.939-6.293 4.122-10.04l1.774-2.086-2.617.423-.082.012a1.11 1.11 0 0 1-.084.01l-.05.003-.08.005c-.895.034-4.557-.168-8.677-5.294l-.289-.358c-.194-.252-.387-.495-.582-.77 7.765-2.5 16 .107 23.33 7.438 7.238 7.235 9.878 15.377 7.519 23.06Z" fill="#fff"/></g><defs><clipPath id="a"><path fill="#fff" d="M0 0h30v30H0z"/></clipPath></defs></svg>