<svg width="82" height="32" fill="none" xmlns="http://www.w3.org/2000/svg"><path d="M4.134.56S0 1.402 0 5.656v26.017s.46-5.241 4.134-5.241H82l-7.94-13.397L82 .56H4.134Z" fill="#E1843E"/><path d="M18.79 10.9V18h-1.64v-2.91h-2.83V18h-1.64v-7.1h1.64v2.75h2.83V10.9h1.64Zm5.07 7.16a3.42 3.42 0 0 1-1.45-.3 3.669 3.669 0 0 1-1.11-.82 3.856 3.856 0 0 1-.71-1.16 3.702 3.702 0 0 1-.25-1.34c0-.473.087-.923.26-1.35.18-.427.427-.807.74-1.14a3.446 3.446 0 0 1 2.55-1.09c.527 0 1.004.103 1.43.31.434.2.804.473 1.11.82.314.347.554.737.72 1.17.167.427.25.863.25 1.31 0 .473-.086.923-.26 1.35-.173.427-.42.81-.74 1.15a3.7 3.7 0 0 1-1.13.8c-.426.193-.896.29-1.41.29Zm-1.85-3.6c0 .273.04.54.12.8.08.253.197.48.35.68a1.724 1.724 0 0 0 1.39.66c.314 0 .587-.06.82-.18.234-.127.427-.293.58-.5.154-.207.267-.437.34-.69a2.672 2.672 0 0 0 0-1.58c-.08-.253-.2-.48-.36-.68a1.647 1.647 0 0 0-.59-.48 1.785 1.785 0 0 0-.79-.17c-.313 0-.586.06-.82.18-.226.12-.42.283-.58.49-.153.2-.27.43-.35.69-.073.253-.11.513-.11.78Zm12.808 1.72c0 .407-.11.747-.33 1.02a1.926 1.926 0 0 1-.87.6c-.366.133-.77.2-1.21.2h-3.46v-7.1h3.95c.334 0 .62.09.86.27.247.173.434.4.56.68.134.28.2.57.2.87 0 .333-.086.653-.26.96-.173.3-.426.527-.76.68.407.12.727.333.96.64.24.307.36.7.36 1.18Zm-1.67-.33a.843.843 0 0 0-.09-.4.708.708 0 0 0-.24-.28.534.534 0 0 0-.34-.11h-1.89v1.55h1.82a.75.75 0 0 0 .74-.76Zm-2.56-3.55v1.47h1.61a.69.69 0 0 0 .59-.32.817.817 0 0 0 .1-.42c0-.16-.03-.293-.09-.4a.551.551 0 0 0-.22-.24.579.579 0 0 0-.32-.09h-1.67Zm5.836 5.7v-7.1h1.64v4.77l3.06-4.77h1.53V18h-1.64v-4.74L37.994 18h-1.57Zm14.346-7.1V18h-1.64v-2.91H46.3V18h-1.64v-7.1h1.64v2.75h2.83V10.9h1.64Zm1.99 7.1v-7.1h1.63v2.75h.56l1.98-2.75h1.82l-2.54 3.43L58.97 18h-1.99l-2.08-2.86h-.51V18h-1.63Zm9.45-7.1h1.77l2.44 7.1h-1.68l-.55-1.59h-2.21L61.44 18h-1.68l2.45-7.1Zm1.71 4.38-.83-2.73-.85 2.73h1.68Z" fill="#fff"/></svg>