<svg width="36" height="36" fill="none" xmlns="http://www.w3.org/2000/svg"><path d="M34.512 7.35 18.199 1.161a.558.558 0 0 0-.398 0L1.488 7.349a.562.562 0 0 0-.363.526v20.25a.563.563 0 0 0 .361.525L17.8 34.917c.129.049.271.049.4 0l16.313-6.21a.562.562 0 0 0 .363-.526V7.875a.562.562 0 0 0-.363-.526ZM18 2.288l14.727 5.586L18 13.461l-4.474-1.697 7.002-2.651a.562.562 0 0 0 0-1.052l-4.196-1.592a.563.563 0 0 0-.4 0L7.748 9.572 3.273 7.875 18 2.289Zm-9.563 8.748 2.813 1.069v8.401L8.437 19.43v-8.393Zm.896-.864 6.8-2.58 2.609.99-6.802 2.58-2.607-.99ZM2.25 8.69l5.063 1.92v9.207a.562.562 0 0 0 .361.525l3.938 1.508a.563.563 0 0 0 .763-.526V12.53l5.063 1.92v19.122L2.25 27.74V8.69Zm16.313 24.885V14.45L33.75 8.69v19.104l-15.188 5.781Z" fill="#C4C4C4"/><path d="m23.987 28.136-3.383 1.287a.563.563 0 1 0 .4 1.052l3.383-1.288a.563.563 0 1 0-.4-1.051ZM27.359 26.852l-1.133.431a.562.562 0 1 0 .4 1.051l1.133-.43a.563.563 0 1 0-.4-1.052ZM23.987 25.886l-3.383 1.287a.563.563 0 1 0 .4 1.052l3.383-1.288a.563.563 0 1 0-.4-1.051ZM27.359 24.602l-1.133.431a.562.562 0 1 0 .4 1.051l1.133-.43a.563.563 0 1 0-.4-1.052ZM23.987 23.636l-3.383 1.287a.563.563 0 1 0 .4 1.052l3.383-1.288a.563.563 0 1 0-.4-1.051ZM27.359 22.352l-1.133.431a.562.562 0 1 0 .4 1.051l1.133-.43a.563.563 0 1 0-.4-1.052Z" fill="#C4C4C4"/></svg>