<svg width="14" height="14" fill="none" xmlns="http://www.w3.org/2000/svg"><path d="M13.971 10.847c-.04-.119-.292-.295-.756-.526a23.334 23.334 0 0 0-.536-.299 49.776 49.776 0 0 1-.632-.348c-.189-.106-.366-.209-.532-.308-.026-.02-.109-.078-.248-.174a2.8 2.8 0 0 0-.353-.214.651.651 0 0 0-.284-.07c-.132 0-.298.095-.497.284a4.842 4.842 0 0 0-.546.617 6.004 6.004 0 0 1-.527.616c-.186.189-.338.283-.458.283a.677.677 0 0 1-.223-.05 2.307 2.307 0 0 1-.205-.084 3.735 3.735 0 0 1-.238-.139 5.827 5.827 0 0 0-.189-.114A10.45 10.45 0 0 1 5.41 8.59a10.443 10.443 0 0 1-1.73-2.337 5.762 5.762 0 0 0-.114-.19 3.588 3.588 0 0 1-.14-.238 2.154 2.154 0 0 1-.084-.204.673.673 0 0 1-.05-.223c0-.12.095-.272.284-.458.189-.185.395-.361.617-.527.222-.165.427-.348.616-.546.189-.2.283-.365.283-.497a.65.65 0 0 0-.07-.284 2.764 2.764 0 0 0-.213-.353c-.096-.139-.154-.222-.174-.248-.1-.166-.202-.343-.308-.532-.106-.19-.222-.4-.348-.632-.126-.232-.226-.41-.299-.537C3.45.322 3.273.07 3.154.03a.557.557 0 0 0-.21-.03c-.178 0-.412.033-.7.1a3.938 3.938 0 0 0-.681.208C1.23.448.88.852.509 1.521c-.338.623-.507 1.24-.507 1.85 0 .178.011.352.034.521.024.17.065.36.125.572.06.212.107.37.144.472.036.103.104.287.204.552.099.265.159.428.179.487.232.65.507 1.23.825 1.74.523.849 1.238 1.726 2.142 2.63.905.905 1.782 1.62 2.63 2.143.51.318 1.09.594 1.74.826.06.02.222.079.487.179l.552.204c.103.036.26.084.472.144.213.06.403.101.572.124.17.023.343.035.522.035.61 0 1.227-.17 1.85-.507.669-.371 1.073-.723 1.212-1.054.074-.166.143-.393.21-.681.066-.289.099-.522.099-.701a.553.553 0 0 0-.03-.21Z" fill="#337D5A"/></svg>