<svg width="82" height="32" fill="none" xmlns="http://www.w3.org/2000/svg"><path d="M4.134.56S0 1.402 0 5.656v26.017s.46-5.241 4.134-5.241H82l-7.94-13.397L82 .56H4.134Z" fill="#DD133B"/><path d="M22.47 10.9h1.77l2.44 7.1H25l-.55-1.59h-2.21L21.7 18h-1.68l2.45-7.1Zm1.71 4.38-.83-2.73-.85 2.73h1.68ZM28.01 18v-7.1h1.63v2.75h.56l1.98-2.75H34l-2.54 3.43L34.22 18h-1.99l-2.08-2.86h-.51V18h-1.63Zm12.9 1.36V18h-5.24v-7.1h1.64v5.66h2.43V10.9h1.64v5.66h.97v2.8h-1.44ZM43.974 18v-7.1h1.64v4.77l3.06-4.77h1.53V18h-1.64v-4.74L45.545 18h-1.57Zm8.046 0 1.68-2.78a1.951 1.951 0 0 1-.98-.79c-.233-.367-.35-.793-.35-1.28 0-.44.1-.827.3-1.16a2.2 2.2 0 0 1 .84-.8 2.58 2.58 0 0 1 1.24-.29h3V18h-1.64v-2.59h-.75L53.87 18h-1.85Zm2.94-3.98h1.15v-1.73h-1.13c-.167 0-.324.03-.47.09a.773.773 0 0 0-.34.28c-.087.12-.13.283-.13.49 0 .2.04.367.12.5.08.127.19.22.33.28.147.06.303.09.47.09Z" fill="#fff"/></svg>