<svg width="37" height="37" fill="none" xmlns="http://www.w3.org/2000/svg"><g clip-path="url(#a)" fill="#C4C4C4"><path d="M36.387 17.771a.656.656 0 0 0-.002-.042l-.002-.013a.67.67 0 0 0-.006-.039l-.002-.015a.475.475 0 0 0-.026-.083l-.008-.021a.564.564 0 0 0-.025-.049l-.006-.01-2.09-3.485v-2.631c0-.3-.243-.542-.543-.542H22.921a6.305 6.305 0 0 0 1.903-4.517A6.33 6.33 0 0 0 18.5 0a6.33 6.33 0 0 0-6.323 6.324c0 1.768.73 3.368 1.903 4.517H3.324c-.3 0-.542.242-.542.542v2.63L.69 17.499l-.005.008a.635.635 0 0 0-.016.03l-.009.02a.551.551 0 0 0-.012.028l-.008.022a.621.621 0 0 0-.019.076l-.005.031a.499.499 0 0 0-.003.054v.039A2.708 2.708 0 0 0 5.491 19.4a2.708 2.708 0 0 0 4.337 0 2.707 2.707 0 0 0 4.336 0 2.708 2.708 0 0 0 4.336 0 2.708 2.708 0 0 0 4.336 0 2.708 2.708 0 0 0 4.337 0 2.708 2.708 0 0 0 4.336 0 2.708 2.708 0 0 0 4.877-1.592v-.016l.001-.016v-.006ZM13.26 6.324c0-2.89 2.35-5.24 5.24-5.24 2.888 0 5.239 2.35 5.239 5.24 0 2.889-2.35 5.24-5.24 5.24-2.889 0-5.24-2.351-5.24-5.24Zm-9.938 13.08c-.706 0-1.309-.454-1.532-1.085h3.065a1.629 1.629 0 0 1-1.533 1.084Zm1.818-2.169H2.113l1.518-2.529h2.648l-1.138 2.529Zm2.519 2.168c-.707 0-1.31-.453-1.533-1.084h3.066a1.629 1.629 0 0 1-1.533 1.084Zm1.765-2.168H6.33l1.138-2.529h2.715l-.758 2.529Zm2.57 2.168c-.706 0-1.308-.453-1.532-1.084h3.066a1.629 1.629 0 0 1-1.533 1.084Zm1.702-2.168h-3.14l.758-2.529h2.762l-.38 2.529Zm2.635 2.168c-.707 0-1.309-.453-1.533-1.084h3.066a1.629 1.629 0 0 1-1.533 1.084Zm1.626-2.168h-3.165l.38-2.529h2.785v2.529Zm2.71 2.168c-.706 0-1.309-.453-1.532-1.084H22.2a1.629 1.629 0 0 1-1.533 1.084Zm-1.626-2.168v-2.529h2.786l.379 2.529h-3.165Zm-8.132-3.613H3.867v-1.697h11.702a6.286 6.286 0 0 0 2.932.722 6.284 6.284 0 0 0 2.933-.722h11.702v1.697H10.911Zm12.014 1.084h2.761l.759 2.529h-3.14l-.38-2.529Zm2.08 4.697c-.706 0-1.309-.453-1.532-1.084h3.065a1.629 1.629 0 0 1-1.532 1.084Zm1.813-4.697h2.715l1.139 2.529h-3.095l-.759-2.529Zm2.524 4.697a1.629 1.629 0 0 1-1.533-1.084h3.066a1.629 1.629 0 0 1-1.533 1.084Zm1.38-4.697h2.649l1.518 2.529h-3.029l-1.138-2.529Zm2.956 4.697a1.629 1.629 0 0 1-1.533-1.084h3.066a1.629 1.629 0 0 1-1.533 1.084ZM33.677 21.643c-.3 0-.542.242-.542.542v13.73h-1.807V22.727c0-.299-.242-.542-.542-.542H23.56c-.3 0-.542.243-.542.542v13.19H21.21v-1.627c0-.299-.242-.541-.542-.541h-.18v-.181a.542.542 0 1 0-1.084 0v.18h-1.085v-.18a.542.542 0 1 0-1.084 0v.18h-1.084v-.18a.542.542 0 1 0-1.084 0v.18h-1.084v-.18a.542.542 0 1 0-1.084 0v.18h-1.084v-.18a.542.542 0 1 0-1.084 0v.18H9.647v-.18a.542.542 0 1 0-1.084 0v.18H7.48v-.18a.542.542 0 1 0-1.084 0v.18h-.181c-.3 0-.542.243-.542.542v1.627H3.865V22.185a.542.542 0 1 0-1.084 0v14.273c0 .3.243.542.542.542h30.354c.3 0 .542-.243.542-.542V22.185c0-.3-.243-.542-.542-.542Zm-13.55 14.273H6.755v-1.084h13.37v1.084Zm10.117 0h-6.143V23.268h6.143v12.648Z"/><path d="M20.668 22.184H6.214c-.3 0-.542.243-.542.542v7.95c0 .3.243.542.542.542h14.454c.3 0 .542-.243.542-.542v-7.95c0-.3-.243-.542-.542-.542Zm-.542 7.95H6.756v-6.866h13.37v6.866ZM28.618 29.411h-2.89a.542.542 0 1 0 0 1.084h2.89a.542.542 0 1 0 0-1.084ZM21.566 9.13l-.358-4.297a.542.542 0 0 0-.54-.497h-.542v-.542c0-.897-.73-1.626-1.626-1.626-.896 0-1.626.73-1.626 1.626v.542h-.542a.542.542 0 0 0-.54.488L15.36 9.16a.542.542 0 0 0 .54.596h5.132a.542.542 0 0 0 .535-.627Zm-3.608-5.336a.543.543 0 0 1 1.084 0v.542h-1.084v-.542Zm-1.46 4.878.325-3.252h3.346l.271 3.252h-3.943Z"/></g><defs><clipPath id="a"><path fill="#fff" d="M0 0h37v37H0z"/></clipPath></defs></svg>