<svg width="37" height="37" fill="none" xmlns="http://www.w3.org/2000/svg"><g clip-path="url(#a)" fill="#337D5A"><path d="M17.267 10.483a1.83 1.83 0 0 0-.113-.616h2.693a1.827 1.827 0 0 0-.113.616 1.85 1.85 0 0 0 3.7 0 1.83 1.83 0 0 0-.114-.616h.73a.617.617 0 0 0 .617-.555l.617-6.167a.618.618 0 0 0-.617-.678H12.604L12.329.529a.617.617 0 0 0-.61-.529h-1.85v1.233h1.314l1.158 8.105a.617.617 0 0 0 .61.529h.73a1.827 1.827 0 0 0-.113.616 1.85 1.85 0 0 0 3.7 0Zm4.934 0a.617.617 0 1 1-1.234 0 .617.617 0 0 1 1.234 0ZM12.78 3.7h11.208l-.493 4.933h-10.01L12.78 3.7Zm2.636 7.4a.617.617 0 1 1 0-1.233.617.617 0 0 1 0 1.233Z"/><path d="m36.533 17.285-9.4-2.35V12.95a.617.617 0 0 0-.616-.617H10.483a.617.617 0 0 0-.616.617v1.985l-9.4 2.35a.617.617 0 0 0-.467.598v18.5c0 .34.276.617.617.617h35.766c.34 0 .617-.276.617-.617v-18.5a.617.617 0 0 0-.467-.598Zm-35.3 1.08 8.634-2.159v19.56H1.233V18.366Zm9.867-4.798h14.8v22.2h-3.083v-5.55a.617.617 0 0 0-.617-.617h-7.4a.617.617 0 0 0-.617.617v5.55H11.1v-22.2Zm4.317 17.266h2.466v4.934h-2.466v-4.934Zm3.7 4.934v-4.934h2.466v4.934h-2.466Zm16.65 0h-8.634v-19.56l8.634 2.158v17.402Z"/><path d="M17.267 28.367c.34 0 .617-.277.617-.617v-2.467a.617.617 0 0 0-.617-.616H12.95a.617.617 0 0 0-.616.616v2.467c0 .34.276.617.616.617h4.317Zm-3.7-2.467h3.083v1.233h-3.083V25.9ZM19.734 28.367h4.316c.341 0 .617-.277.617-.617v-2.467a.617.617 0 0 0-.617-.616h-4.316a.617.617 0 0 0-.617.616v2.467c0 .34.276.617.617.617Zm.616-2.467h3.084v1.233H20.35V25.9ZM12.95 23.433h4.317c.34 0 .617-.276.617-.616V20.35a.617.617 0 0 0-.617-.617H12.95a.617.617 0 0 0-.616.617v2.467c0 .34.276.616.616.616Zm.617-2.466h3.083V22.2h-3.083v-1.233ZM19.734 23.433h4.316c.341 0 .617-.276.617-.616V20.35a.617.617 0 0 0-.617-.617h-4.316a.617.617 0 0 0-.617.617v2.467c0 .34.276.616.617.616Zm.616-2.466h3.084V22.2H20.35v-1.233ZM12.95 18.5h4.317c.34 0 .617-.276.617-.617v-2.466a.617.617 0 0 0-.617-.617H12.95a.617.617 0 0 0-.616.617v2.466c0 .34.276.617.616.617Zm.617-2.467h3.083v1.234h-3.083v-1.234ZM19.734 18.5h4.316c.341 0 .617-.276.617-.617v-2.466a.617.617 0 0 0-.617-.617h-4.316a.617.617 0 0 0-.617.617v2.466c0 .34.276.617.617.617Zm.616-2.467h3.084v1.234H20.35v-1.234ZM28.984 28.367h4.933c.34 0 .617-.277.617-.617v-2.467a.617.617 0 0 0-.617-.616h-4.933a.617.617 0 0 0-.617.616v2.467c0 .34.276.617.617.617ZM29.6 25.9h3.7v1.233h-3.7V25.9ZM28.984 23.433h4.933c.34 0 .617-.276.617-.616V20.35a.617.617 0 0 0-.617-.617h-4.933a.617.617 0 0 0-.617.617v2.467c0 .34.276.616.617.616Zm.616-2.466h3.7V22.2h-3.7v-1.233ZM28.984 34.533h4.933c.34 0 .617-.276.617-.616v-3.7a.617.617 0 0 0-.617-.617h-4.933a.617.617 0 0 0-.617.617v3.7c0 .34.276.616.617.616Zm.616-3.7h3.7V33.3h-3.7v-2.467ZM8.016 24.667H3.083a.617.617 0 0 0-.617.616v2.467c0 .34.276.617.617.617h4.933c.34 0 .617-.277.617-.617v-2.467a.617.617 0 0 0-.617-.616ZM7.4 27.133H3.7V25.9h3.7v1.233ZM8.016 19.733H3.083a.617.617 0 0 0-.617.617v2.467c0 .34.276.616.617.616h4.933c.34 0 .617-.276.617-.616V20.35a.617.617 0 0 0-.617-.617ZM7.4 22.2H3.7v-1.233h3.7V22.2ZM8.016 29.6H3.083a.617.617 0 0 0-.617.617v3.7c0 .34.276.616.617.616h4.933c.34 0 .617-.276.617-.616v-3.7a.617.617 0 0 0-.617-.617ZM7.4 33.3H3.7v-2.467h3.7V33.3Z"/></g><defs><clipPath id="a"><path fill="#fff" d="M0 0h37v37H0z"/></clipPath></defs></svg>