<svg width="10" height="10" fill="none" xmlns="http://www.w3.org/2000/svg"><g clip-path="url(#a)"><path d="M9.98 7.748c-.028-.085-.208-.21-.54-.376-.09-.052-.218-.123-.383-.213-.166-.09-.316-.173-.451-.249-.135-.076-.262-.149-.38-.22a9.405 9.405 0 0 0-.178-.124c-.1-.069-.183-.12-.252-.153a.465.465 0 0 0-.202-.05c-.095 0-.213.068-.355.203a3.459 3.459 0 0 0-.39.44 4.28 4.28 0 0 1-.377.44c-.133.135-.242.203-.327.203a.483.483 0 0 1-.16-.036 1.658 1.658 0 0 1-.145-.06 2.649 2.649 0 0 1-.17-.1 4.394 4.394 0 0 0-.136-.081 7.463 7.463 0 0 1-1.669-1.236A7.46 7.46 0 0 1 2.63 4.467a4.083 4.083 0 0 0-.082-.135 2.566 2.566 0 0 1-.1-.17 1.54 1.54 0 0 1-.06-.146.48.48 0 0 1-.035-.16c0-.085.067-.194.202-.326.135-.133.282-.259.44-.377.159-.118.306-.248.44-.39.136-.142.203-.26.203-.355a.464.464 0 0 0-.05-.203 1.973 1.973 0 0 0-.152-.252c-.07-.1-.11-.159-.125-.178-.07-.118-.144-.245-.22-.38a35.99 35.99 0 0 1-.248-.45A16.9 16.9 0 0 0 2.629.56C2.464.23 2.34.05 2.253.021A.398.398 0 0 0 2.104 0a2.34 2.34 0 0 0-.5.071 2.812 2.812 0 0 0-.487.15C.88.32.629.607.364 1.086c-.242.445-.362.885-.362 1.32a2.743 2.743 0 0 0 .113.782c.043.151.077.264.103.337l.146.394c.07.19.114.306.128.348.165.464.362.878.59 1.243.373.606.883 1.232 1.53 1.879.646.646 1.272 1.156 1.878 1.53.365.227.78.424 1.243.59.043.014.159.056.348.128.19.07.32.12.394.145.073.026.186.06.337.103.152.043.288.073.409.09.12.016.245.024.373.024.435 0 .876-.12 1.32-.362.479-.265.768-.516.867-.753.052-.118.102-.28.15-.487.047-.206.07-.372.07-.5a.397.397 0 0 0-.021-.15Z" fill="#337D5A"/></g><defs><clipPath id="a"><path fill="#fff" d="M0 0h10v10H0z"/></clipPath></defs></svg>