<svg width="31" height="31" fill="none" xmlns="http://www.w3.org/2000/svg"><circle cx="15.5" cy="15.5" r="15.5" fill="#337D5A"/><g clip-path="url(#a)"><path d="M18.27 22.261a.554.554 0 0 1-.31-.095l-3.52-2.388-1.889 1.359a.555.555 0 0 1-.86-.309l-.948-3.593-3.387-1.295a.554.554 0 0 1-.007-1.032l12.88-5.125a.555.555 0 0 1 .76.621l-2.174 11.407a.554.554 0 0 1-.545.45Zm-3.522-3.613 3.136 2.127 1.691-8.876-6.11 5.88 1.268.86.015.01Zm-2.61-.473.42 1.591.904-.65-1.184-.804a.552.552 0 0 1-.14-.137Zm-3.06-2.763 2.327.89a.554.554 0 0 1 .338.376l.295 1.118a.555.555 0 0 1 .167-.342l5.821-5.602-8.947 3.56Z" fill="#fff"/></g><defs><clipPath id="a"><path fill="#fff" transform="translate(7 9)" d="M0 0h14v14H0z"/></clipPath></defs></svg>