<svg width="31" height="31" fill="none" xmlns="http://www.w3.org/2000/svg"><circle cx="15.5" cy="15.5" r="15.5" fill="#337D5A"/><g clip-path="url(#a)" fill="#fff"><path d="M12.154 24a.344.344 0 0 1-.344-.344c0-.865-.001-1.732.002-2.598 0-.098-.033-.155-.125-.188-.176-.063-.351-.132-.53-.189-1.066-.336-1.799-1.035-2.313-1.974-.281-.516-.451-1.068-.581-1.635a11.04 11.04 0 0 1-.259-2.787c.018-.607.068-1.21.162-1.81.073-.472.14-.947.25-1.414.256-1.09.87-1.96 1.793-2.624.567-.406 1.197-.691 1.863-.904a10.822 10.822 0 0 1 1.672-.374c.808-.123 1.62-.18 2.436-.154.499.017.999.053 1.496.1.706.068 1.406.179 2.093.356.659.17 1.286.413 1.862.77 1.002.619 1.624 1.501 1.929 2.607.192.696.319 1.404.384 2.121.07.769.071 1.537.024 2.307-.029.456-.066.91-.146 1.36-.158.876-.424 1.715-.884 2.488-.348.582-.845 1.024-1.445 1.358a6.088 6.088 0 0 1-1.675.605c-.463.101-.931.161-1.404.198-1.065.08-2.13.113-3.199.14-.035.002-.08.016-.103.04-.641.681-1.327 1.32-2.005 1.965-.19.182-.382.364-.577.542a.142.142 0 0 1-.092.036 20.55 20.55 0 0 1-.284.002Zm.418-1.195c-.002.028.034.045.053.024.227-.216.457-.427.68-.647.412-.403.82-.81 1.225-1.22a.94.94 0 0 1 .66-.289c.755-.029 1.511-.052 2.265-.081.62-.025 1.24-.068 1.852-.173.597-.101 1.173-.261 1.711-.537.6-.306 1.067-.744 1.372-1.333a7.13 7.13 0 0 0 .705-2.2c.092-.598.127-1.202.14-1.805a12.526 12.526 0 0 0-.177-2.472 9.003 9.003 0 0 0-.322-1.322 3.421 3.421 0 0 0-1.272-1.734c-.495-.354-1.047-.596-1.633-.77-.49-.144-.992-.238-1.497-.314a18.005 18.005 0 0 0-1.571-.168 13.68 13.68 0 0 0-2.246.042c-.583.06-1.159.148-1.726.291-.693.174-1.35.428-1.954.808-.88.556-1.455 1.326-1.679 2.324-.103.459-.17.927-.243 1.392-.087.568-.135 1.14-.149 1.712-.019.696.022 1.389.141 2.075.084.482.197.958.369 1.418.201.538.484 1.027.908 1.432.296.284.628.515 1.03.644.24.077.474.17.71.262.174.066.334.154.455.297.146.172.193.374.193.593V22.805Z"/><path d="M18.42 19.195a1.405 1.405 0 0 1-.495-.116c-1.206-.496-2.325-1.133-3.33-1.952a11.511 11.511 0 0 1-2.428-2.735c-.388-.602-.683-1.244-.938-1.906-.05-.126-.116-.248-.142-.379-.119-.616.116-1.095.626-1.458.224-.158.478-.257.749-.31.26-.053.48.034.668.205.37.336.69.713.954 1.132.124.194.237.396.343.6.159.302.103.56-.16.786-.1.085-.207.163-.308.246-.348.288-.427.575-.259.987.25.62.643 1.141 1.164 1.574.398.33.845.582 1.33.773.343.135.64.01.85-.28.097-.136.197-.265.338-.36.26-.172.539-.172.824-.073.192.066.362.174.524.29.373.27.751.537 1.12.812.17.128.3.291.332.508a.809.809 0 0 1-.079.444c-.216.483-.578.831-1.065 1.058-.25.121-.384.154-.619.154ZM16.463 9.585c1.158.006 2.21.444 3.048 1.338.565.605.902 1.32 1.014 2.13.067.47.045.94-.06 1.405-.04.178-.16.29-.327.304-.176.014-.34-.076-.403-.22a.407.407 0 0 1-.013-.25c.202-.964.022-1.854-.58-2.647-.553-.725-1.302-1.151-2.223-1.285a3.542 3.542 0 0 0-1.248.05.358.358 0 0 1-.43-.278.35.35 0 0 1 .264-.437c.285-.071.576-.1.958-.11Z"/><path d="M19.4 13.204a3.005 3.005 0 0 1-.019.91c-.032.2-.203.314-.422.289-.203-.023-.343-.18-.329-.377.01-.136.035-.271.037-.408.01-.964-.627-1.81-1.578-2.09a2.258 2.258 0 0 0-1.024-.063c-.356.062-.514-.25-.444-.482a.331.331 0 0 1 .277-.24c1.04-.163 1.94.114 2.683.838.46.448.729.996.819 1.623Z"/><path d="M16.413 11.806c.924.012 1.725.697 1.849 1.575.016.115.027.235.013.35-.026.196-.196.309-.415.292a.35.35 0 0 1-.336-.348 1.087 1.087 0 0 0-.192-.638c-.23-.325-.551-.486-.957-.494-.164-.003-.29-.068-.351-.219a.367.367 0 0 1 .078-.417.389.389 0 0 1 .31-.101Z"/></g><defs><clipPath id="a"><path fill="#fff" transform="translate(8 7)" d="M0 0h16v17H0z"/></clipPath></defs></svg>