<svg width="24" height="24" fill="none" xmlns="http://www.w3.org/2000/svg"><path d="M23.848 12.467c-.215.293-5.323 7.181-11.848 7.181S.366 12.76.152 12.468a.792.792 0 0 1 0-.935C.366 11.24 5.475 4.352 12 4.352c6.524 0 11.633 6.888 11.848 7.181a.791.791 0 0 1 0 .934ZM12 5.934c-4.806 0-8.969 4.572-10.2 6.067 1.23 1.495 5.384 6.065 10.2 6.065 4.806 0 8.968-4.571 10.2-6.066-1.23-1.496-5.384-6.066-10.2-6.066Z" fill="#8A8A8A"/><path d="M12 16.747A4.753 4.753 0 0 1 7.251 12a4.753 4.753 0 0 1 4.747-4.747A4.753 4.753 0 0 1 16.747 12a4.753 4.753 0 0 1-4.748 4.747Zm0-7.912A3.168 3.168 0 0 0 8.833 12 3.168 3.168 0 0 0 12 15.165 3.168 3.168 0 0 0 15.164 12a3.168 3.168 0 0 0-3.165-3.165Z" fill="#8A8A8A"/></svg>