<svg width="37" height="37" fill="none" xmlns="http://www.w3.org/2000/svg"><g clip-path="url(#a)" fill="#337D5A"><path d="M33.346 6.372 22.051.256c-1.071-.58-2.545-.134-3.125.938L12.318 13.47H4.282a1.81 1.81 0 0 0-1.83 1.83V35.17A1.81 1.81 0 0 0 4.281 37h25.671a1.81 1.81 0 0 0 1.83-1.83v-4.644h.76a.705.705 0 0 0 .714-.714v-5.313a.705.705 0 0 0-.714-.714h-.76V18.56c0-.848-.624-1.607-1.428-1.786l3.93-7.277a2.34 2.34 0 0 0-.938-3.125ZM25.31 3.65 18.256 16.73h-2.01l7.546-13.885 1.518.804Zm-5.09-1.786c.224-.402.76-.58 1.161-.357l1.116.625-7.857 14.6h-2.456l8.037-14.868ZM3.835 15.257c0-.134.179-.357.402-.357h7.277l-.982 1.786H4.237c-.134 0-.268 0-.402.044v-1.473ZM30.311 35.17a.4.4 0 0 1-.402.401H4.237a.4.4 0 0 1-.402-.401V18.56a.4.4 0 0 1 .402-.402H29.865a.4.4 0 0 1 .4.402v5.224h-2.723a2.144 2.144 0 0 0-2.143 2.143v2.455c0 1.206.983 2.143 2.143 2.143h2.769v4.643Zm1.428-9.957h.045v3.885h-4.242a.705.705 0 0 1-.714-.715v-2.455c0-.402.313-.715.715-.715h4.196Zm1.25-16.43-4.286 7.947h-8.84L26.56 4.363l6.072 3.304c.447.179.58.715.357 1.116Z"/><path d="m30.266 8.114-.357-.179c-.893-.491-2.098-.134-2.59.76l-.446.847c-.223.447-.313.983-.134 1.474.134.49.491.893.938 1.116l.357.178c.268.134.58.224.893.224.714 0 1.34-.402 1.696-.982l.447-.849c.446-.937.09-2.098-.804-2.59Zm-.491 1.92-.447.848c-.133.223-.446.312-.67.178l-.356-.223c-.09-.044-.179-.178-.224-.268-.044-.134-.044-.268.045-.357l.447-.848c.089-.134.267-.268.446-.268.09 0 .134 0 .223.045l.357.178a.694.694 0 0 1 .179.714Z"/></g><defs><clipPath id="a"><path fill="#fff" d="M0 0h37v37H0z"/></clipPath></defs></svg>