<svg width="55" height="55" fill="none" xmlns="http://www.w3.org/2000/svg"><circle cx="27.5" cy="27.5" r="27.5" fill="#fff" fill-opacity=".15"/><circle cx="27.5" cy="27.5" r="22.5" fill="#93B474"/><g clip-path="url(#a)"><path d="m36.37 35.3-4.372-4.371a7.665 7.665 0 0 0-5.926-12.52 7.663 7.663 0 1 0 0 15.325c1.844 0 3.532-.649 4.853-1.733l4.372 4.368a.757.757 0 1 0 1.072-1.069ZM26.07 32.21a6.146 6.146 0 0 1-6.141-6.139 6.149 6.149 0 0 1 6.141-6.141 6.151 6.151 0 0 1 6.142 6.141c0 3.385-2.757 6.138-6.142 6.138Z" fill="#fff"/></g><defs><clipPath id="a"><path fill="#fff" transform="translate(18 18)" d="M0 0h19v19H0z"/></clipPath></defs></svg>