<svg width="11" height="11" viewBox="0 0 11 11" fill="none" xmlns="http://www.w3.org/2000/svg">
<path d="M8.7349 2.25819C7.09789 0.62879 5.23143 0.108699 3.47747 0.795262L3.25139 0.883915L3.38359 1.08716C3.44459 1.181 3.50559 1.26767 3.56667 1.35098C3.11008 1.5807 2.67072 1.90373 2.25743 2.31502C1.38355 3.185 0.766712 4.66707 0.564547 6.38176C0.424611 7.5682 0.516803 8.62997 0.796523 9.30403C0.849019 9.48652 0.930942 9.6375 1.04521 9.74851C1.05218 9.75523 1.06092 9.75797 1.0685 9.76354C1.07801 9.7746 1.08736 9.78551 1.09709 9.79597C1.09946 9.79856 1.1013 9.80154 1.1036 9.80413C1.10544 9.80604 1.10582 9.80848 1.10782 9.81046C1.10881 9.81145 1.11004 9.81245 1.11119 9.81344C1.1118 9.81405 1.11203 9.81466 1.11265 9.81519C1.11318 9.8158 1.11402 9.81603 1.11456 9.81641C1.11556 9.8174 1.11678 9.8184 1.11793 9.81939C1.12054 9.82191 1.12291 9.82534 1.12552 9.82793C1.142 9.84495 1.16353 9.85959 1.18139 9.87577C1.18499 9.87859 1.18813 9.88195 1.19173 9.88469C1.62748 10.2742 2.43561 10.4932 3.49134 10.4998C3.5069 10.5 3.52238 10.5 3.53793 10.5C5.20522 10.5 7.42673 9.94741 8.67551 8.70421C9.10053 8.28109 9.43213 7.82867 9.66472 7.35626C9.75239 7.41401 9.84366 7.47161 9.94107 7.52906L10.145 7.64938L10.2285 7.42828C10.8801 5.70176 10.3498 3.86553 8.7349 2.25819ZM8.39418 8.42429C7.2146 9.59867 5.07693 10.1117 3.49371 10.104C3.22472 10.1024 2.97251 10.0837 2.73832 10.0529C3.82785 9.83793 5.18023 9.13877 5.80428 8.12453C5.86175 8.0313 5.83233 7.90938 5.73868 7.85239C5.64465 7.7954 5.52264 7.8247 5.46539 7.9177C4.86641 8.89097 3.42175 9.59417 2.37116 9.71128C1.9151 9.76156 1.56388 9.69945 1.40003 9.54031C1.39727 9.53756 1.39482 9.53397 1.39229 9.53123C1.27833 9.28953 1.94039 7.85094 2.89044 7.1492C2.97842 7.08412 2.99696 6.96022 2.93151 6.87256C2.86591 6.78467 2.74154 6.76643 2.65363 6.83159C2.00399 7.31147 1.39765 8.19617 1.13065 8.8716C1.12567 8.75517 1.12951 8.62853 1.14499 8.49105C1.26285 7.44491 1.96897 6.00648 2.94661 5.4104C3.04026 5.35341 3.06969 5.23149 3.01221 5.13826C2.95497 5.0451 2.83273 5.01596 2.73893 5.07303C1.84651 5.61708 1.1971 6.71738 0.904273 7.7111C0.889559 7.3117 0.906649 6.8763 0.959527 6.42807C1.14836 4.82424 1.73876 3.39122 2.53853 2.59502C2.94347 2.19189 3.37309 1.88114 3.81696 1.6692C4.44514 2.39963 5.04091 2.63576 5.42263 2.70679C5.37949 2.76699 5.3427 2.82611 5.30454 2.88578C5.28446 2.91706 5.26124 2.94864 5.24254 2.97977C5.21771 3.02089 5.19786 3.06125 5.17518 3.10222C5.14812 3.15097 5.1187 3.20018 5.09463 3.24832C5.08352 3.27067 5.0754 3.29227 5.06505 3.31439C5.03401 3.38008 5.00298 3.44562 4.97738 3.50993C4.97439 3.51748 4.9724 3.52458 4.96964 3.53213C4.53626 4.63785 4.8589 5.5195 4.94948 5.72747L4.98075 5.79934L5.05294 5.83047C5.24691 5.91393 6.02445 6.19835 7.02439 5.89242C7.02478 5.89242 7.02493 5.89219 7.02531 5.89219C7.0975 5.86999 7.17123 5.84329 7.24564 5.81475C7.25714 5.81025 7.26848 5.80728 7.27997 5.8027C7.33645 5.78034 7.39431 5.75265 7.45194 5.72633C7.48237 5.71229 7.51218 5.701 7.54299 5.68574C7.58813 5.66339 7.63441 5.63584 7.68032 5.61097C7.72446 5.58679 7.76799 5.56543 7.81251 5.53872C7.8447 5.5195 7.87773 5.49562 7.91015 5.47479C7.96877 5.43733 8.02725 5.40155 8.08664 5.35943C8.16381 5.77302 8.4397 6.4386 9.33649 7.12356C9.12222 7.57728 8.8061 8.01429 8.39418 8.42429ZM9.93448 7.06016C9.87524 7.02217 9.82313 6.98433 9.76864 6.94656L9.69944 6.8969C8.35525 5.93011 8.45281 5.04983 8.4594 5.00177L8.54929 4.46917L8.54592 4.47199L8.13415 4.82027C6.82215 5.92973 5.6133 5.61387 5.28484 5.49592C5.26262 5.43458 5.23334 5.34234 5.2079 5.22462C5.17395 5.06746 5.14667 4.86459 5.15165 4.62809C5.16276 4.09609 5.33649 3.39412 5.96353 2.65949L6.31283 2.25048L5.79738 2.33341L5.78121 2.33578C5.77883 2.33616 5.77293 2.33692 5.76473 2.33753C5.76213 2.33776 5.75822 2.33791 5.75485 2.33814C5.75025 2.33852 5.74489 2.33875 5.73914 2.33913C5.5628 2.34585 4.84158 2.30625 4.03009 1.30109L3.97322 1.2309C3.93506 1.18161 3.89689 1.13393 3.8585 1.08006C5.38784 0.589652 7.00976 1.10105 8.45342 2.53841C9.87922 3.95701 10.3992 5.55352 9.93448 7.06016Z" fill="#AB7A2B"/>
</svg>
